# xmcd
#
# Track frame offsets:
#	150
#	14227
#	26188
#	37563
#	55988
#	72873
#	92658
#	117695
#	130275
#	148320
#	161095
#	174449
#	186516
#	196702
#	209648
#	221581
#	237944
#	253523
#
# Disc length: 3650 seconds
#
# Revision: 1
# Processed by: cddbd v1.5.2PL0 Copyright (c) Steve Scherf et al.
# Submitted via: audiograbber 1.83.01
#
DISCID=160e4012
DTITLE=Various Artist - Ohrwürmer - Love Songs
DYEAR=2016
DGENRE=Oldies
TTITLE0=Kenny Rogers - You Are So Beautiful
TTITLE1=Dionne Warwick and Tom Jones - Endless Love
TTITLE2=Cher - The Way Of Love
TTITLE3=Shirley Bassey - All By Myself
TTITLE4=Middle Of The Road ft. L. Fehlberg and S. McCredie - Show Me Heaven
TTITLE5=José Feliciano - Right Here Waiting
TTITLE6=10cc - I'm Not In Love
TTITLE7=F.R. David - Words
TTITLE8=Boris Gardiner - I Wanna Wake Up With You
TTITLE9=Percy Sledge - When A Man Loves A Woman
TTITLE10=Ben E. King - Stand By Me
TTITLE11=Elvis Presley - Love Me Tender
TTITLE12=The Everly Brothers - All I Have To Do Is Dream
TTITLE13=The Temptations - My Girl
TTITLE14=Aretha Franklin - A Natural Woman
TTITLE15=Melanie - Unchained Melody
TTITLE16=Nat King Cole - Unforgettable
TTITLE17=Paul Anka - My Way
EXTD=
EXTT0=
EXTT1=
EXTT2=
EXTT3=
EXTT4=
EXTT5=
EXTT6=
EXTT7=
EXTT8=
EXTT9=
EXTT10=
EXTT11=
EXTT12=
EXTT13=
EXTT14=
EXTT15=
EXTT16=
EXTT17=
PLAYORDER=
